# xmcd
# 
# Track frame offsets:
#     182
#     15607
#     35960
#     54757
#     64967
#     78220
#     96825
#     112700
#     128527
#     144752
#     165215
#     183050
# 
# Disc length: 2642
# 
# Revision: 7
# Processed by: cddbd v1.5.2PL0 Copyright (c) Steve Scherf et al.
# Submitted via: BonkEnc v1.0.8
# 
DISCID=830a500c
DTITLE=The Cardigans - Emmerdale
DYEAR=1994
DGENRE=Pop
TTITLE0=Sick and Tired
TTITLE1=Black Letter Day
TTITLE2=In The Afternoon
TTITLE3=Over The Water
TTITLE4=After All...
TTITLE5=Cloudy Sky
TTITLE6=Our Space
TTITLE7=Rise and Shine
TTITLE8=Celia Inside
TTITLE9=Sabbath Bloody Sabbath
TTITLE10=Seems Hard
TTITLE11=Last Song
EXTD=ID3G: 27 YEAR: 1994
EXTT0=
EXTT1=
EXTT2=
EXTT3=
EXTT4=
EXTT5=
EXTT6=
EXTT7=
EXTT8=
EXTT9=
EXTT10=
EXTT11=
PLAYORDER=
